<?xml version="1.0" encoding="utf-8"?>
<!-- Generator: Adobe Illustrator 24.1.1, SVG Export Plug-In . SVG Version: 6.00 Build 0)  -->
<svg version="1.1" id="Layer_1" xmlns="http://www.w3.org/2000/svg" xmlns:xlink="http://www.w3.org/1999/xlink" x="0px" y="0px"
	 viewBox="0 0 512 512" style="enable-background:new 0 0 512 512;" xml:space="preserve">
<g>
	<path d="M116.4,23.3l-18.6-14l-69.8,93.1c-3,4.1-4.7,8.9-4.7,14v325.8c0,38.6,31.2,69.8,69.8,69.8h325.8
		c38.6,0,69.8-31.2,69.8-69.8V116.4c0-5.1-1.6-9.9-4.7-14L414.3,9.3C409.9,3.5,402.9,0,395.6,0H116.4c-7.3,0-14.2,3.5-18.6,9.3
		L116.4,23.3v23.3H384l58.2,77.6v318.1c0,12.8-10.4,23.2-23.3,23.3H93.1c-12.8,0-23.2-10.4-23.3-23.3V124.1L135,37.2L116.4,23.3
		v23.3V23.3z"/>
	<path d="M46.5,139.6h418.9c12.9,0,23.3-10.4,23.3-23.3c0-12.9-10.4-23.3-23.3-23.3H46.5c-12.9,0-23.3,10.4-23.3,23.3
		C23.3,129.2,33.7,139.6,46.5,139.6"/>
	<path d="M325.8,209.5c-0.1,38.5-31.3,69.7-69.8,69.8c-38.5-0.1-69.7-31.3-69.8-69.8c0-12.9-10.4-23.3-23.3-23.3
		c-12.9,0-23.3,10.4-23.3,23.3c0,64.3,52.1,116.3,116.4,116.4c64.3,0,116.3-52.1,116.4-116.4c0-12.9-10.4-23.3-23.3-23.3
		S325.8,196.6,325.8,209.5L325.8,209.5z"/>
</g>
</svg>
